HIERARCHY
ROOT Hips
{
    OFFSET 11.353728294372559 90.41301345825195 -17.972734451293945
    CHANNELS 6 Xposition Yposition Zposition Zrotation Xrotation Yrotation
    JOINT RightUpLeg
    {
        OFFSET -11.353728294372559 0.0 0.0
        CHANNELS 3 Zrotation Xrotation Yrotation
        JOINT RightLeg
        {
            OFFSET 0.0 -45.481178283691406 0.0
            CHANNELS 3 Zrotation Xrotation Yrotation
            JOINT RightFoot
            {
                OFFSET 0.0 -44.93183517456055 0.0
                CHANNELS 3 Zrotation Xrotation Yrotation
                End Site
                {
                    OFFSET 0.0 0.0 17.972734451293945
                }
            }
        }
    }
    JOINT LeftUpLeg
    {
        OFFSET 11.353728294372559 0.0 0.0
        CHANNELS 3 Zrotation Xrotation Yrotation
        JOINT LeftLeg
        {
            OFFSET 0.0 -45.481178283691406 0.0
            CHANNELS 3 Zrotation Xrotation Yrotation
            JOINT LeftFoot
            {
                OFFSET 0.0 -44.93183517456055 0.0
                CHANNELS 3 Zrotation Xrotation Yrotation
                End Site
                {
                    OFFSET 0.0 0.0 17.972734451293945
                }
            }
        }
    }
    JOINT Spine
    {
        OFFSET 0.0 23.922914505004883 0.0
        CHANNELS 3 Zrotation Xrotation Yrotation
        JOINT Spine3
        {
            OFFSET 0.0 24.44933319091797 0.0
            CHANNELS 3 Zrotation Xrotation Yrotation
            JOINT Neck
            {
                OFFSET 0.0 9.903070449829102 0.0
                CHANNELS 3 Zrotation Xrotation Yrotation
                End Site
                {
                    OFFSET 0.0 3.961228132247925 0.0
                }
            }
            JOINT LeftArm
            {
                OFFSET 13.061370849609375 0.0 0.0
                CHANNELS 3 Zrotation Xrotation Yrotation
                JOINT LeftForeArm
                {
                    OFFSET 27.749658584594727 0.0 0.0
                    CHANNELS 3 Zrotation Xrotation Yrotation
                    JOINT LeftHand
                    {
                        OFFSET 16.831256866455078 0.0 0.0
                        CHANNELS 3 Zrotation Xrotation Yrotation
                        End Site
                        {
                            OFFSET 6.7325029373168945 0.0 0.0
                        }
                    }
                }
            }
            JOINT RightArm
            {
                OFFSET -13.061370849609375 0.0 0.0
                CHANNELS 3 Zrotation Xrotation Yrotation
                JOINT RightForeArm
                {
                    OFFSET -27.749658584594727 0.0 0.0
                    CHANNELS 3 Zrotation Xrotation Yrotation
                    JOINT RightHand
                    {
                        OFFSET -16.831256866455078 0.0 0.0
                        CHANNELS 3 Zrotation Xrotation Yrotation
                        End Site
                        {
                            OFFSET -6.7325029373168945 0.0 0.0
                        }
                    }
                }
            }
        }
    }
}
MOTION
Frames: 7
Frame Time: 0.03333333333333333
8.144525054376572e-07 93.56965637207031 -0.0009924431797116995 -6.120978088531241 12.191611991909872 -129.62795190708903 -3.263706677690282 5.578855222477991 -0.1521805850772858 -2.3658295024765996 15.987910145465877 0.2368891972616146 9.93923337957349e-16 -3.017318758432726e-32 -3.4787316828507214e-15 -12.34222464362675 -0.4120900303494902 -0.04938399041590748 0.2959632445430313 28.432486292393722 3.457579156781787 3.975693351829396e-16 -2.758691436281349e-33 -7.951386703658792e-16 -1.991283024320267 19.13593654786298 -0.9199355125037325 8.533999775868833e-07 1.6338789685668113e-07 -4.954775266967062 -7.265805962814243 2.2886848364400465 -170.96363227537935 111.18838810032756 -26.014165032704664 -177.51263208506455 -3.194794844134247e-06 -1.7870693730791546e-06 83.48727801461787 6.3611093629270335e-15 -6.3611093629270335e-15 3.531125038440127e-31 -119.91384781528083 -22.04984000910711 168.12320562144836 -3.0158518770476397e-06 -1.8772085877091156e-07 -85.53949395157568 -1.590277340731758e-15 -4.4139062980501586e-32 3.180554681463516e-15
-7.43347336538136e-05 93.56970977783203 -0.0010217601666226983 -6.803319220613064 11.41320722882865 -128.18868405715708 -3.897188880450824 6.633961875425813 -0.08870631690770629 -1.856306797362665 15.851946802151547 0.3118219522987902 1.5902773407317582e-15 -9.655420026984722e-33 -6.957463365701442e-16 -12.987657948219596 -0.24438432623795606 -0.030209812530932044 0.7224584005773487 25.62122627554669 3.3063824594627045 7.951386703658792e-16 1.4483130040477084e-32 2.087239009710433e-15 -3.5862044046075914 19.759221400288443 -0.3551084078775381 9.504067977183564e-07 4.6455568048332655e-07 -4.16761849632436 -6.892632002467586 1.3436839295075145 -170.212708853242 110.40475293519953 -23.817792905394125 -179.27580995046586 -1.8206213951006326e-06 -1.6939535889300462e-06 83.66153533705449 3.531125038440127e-31 -6.361109362927033e-15 6.361109362927033e-15 -119.46912806911074 -20.61398658587024 167.25274661058793 5.921874687823623e-06 -2.3164394719226663e-06 -85.70149106599605 -1.7655625192200634e-31 -6.3611093629270335e-15 -3.1805546814635168e-15
-9.2742768174503e-05 93.56971740722656 -0.000989302177913487 -7.414490510137762 10.770370179707777 -126.46453611336385 -4.969913919355285 7.8933645935415395 -0.01656534895666494 -1.6533046121386101 15.11308987776473 0.4108506653747601 1.1927080055488188e-15 -7.951386703658794e-16 -9.044702375411875e-15 -13.486795581298141 -0.12214263576978845 -0.012273485646728142 1.7422234107617214 22.71280513163721 2.580308661384603 0.0 0.0 -1.242404172446686e-15 -4.919234190119865 19.789874006579552 -0.05048906301013818 2.1001926639675058e-07 4.0403646591453734e-07 -3.5532062789144363 -5.815354043090872 2.090032212852294 -169.92151104691416 110.62976950633443 -23.19021920931637 179.20729691253604 4.619940789369413e-06 1.4866264357294929e-06 85.41838654724089 0.0 0.0 -3.1805546814635168e-15 -119.45695373730133 -20.283709362362984 167.5715347514244 1.557626434165744e-06 5.209706354384665e-06 -86.04467833558148 0.0 0.0 0.0
-0.00011451293539721519 93.56970977783203 -0.000986994942650199 -8.402983573229427 10.653261010959598 -123.89232283112746 -4.582513671690449 10.092224191251795 -0.12873527444904517 -1.403782973713134 14.84232298791646 0.1829816208571382 -1.5902773407317584e-15 -7.951386703658794e-16 8.348956038841732e-15 -13.550621171999056 0.6493393054477827 0.09988569927498608 1.894508034964762 19.69460524505483 2.1423738978565874 2.857529596627378e-16 -2.484808344893373e-17 -2.8575295966273784e-15 -5.543710930212415 20.1721793753381 0.0831317375383788 3.9536582726356174e-07 -1.276344284542084e-07 -3.653391621170189 -5.609601071191007 2.4606945409508643 -169.96497369926192 111.37642929734271 -21.830960402991433 177.16836379891376 4.8392153147729434e-06 -3.690792819621932e-06 87.67227519887606 6.3611093629270335e-15 0.0 0.0 -119.26653213398718 -16.340657478017082 168.5236820572656 3.3224499770780427e-06 1.3206054962479036e-06 -83.72143805811837 0.0 0.0 0.0
-5.970250640530139e-05 93.56980895996094 -0.0010233776411041617 -8.96006755654277 10.403268397839895 -120.79910911507217 -3.6387412209751173 11.537487645860791 -0.267185277534902 -2.360269167101555 15.076139231878699 0.28136503797355294 1.1927080055488188e-15 -1.5902773407317582e-15 6.758678698109972e-15 -13.496606872254008 1.620239672776571 0.2485605117131945 2.3269022903386793 16.384962158112735 1.7503629263560951 -2.186631343506168e-15 -3.319050634275998e-32 1.739365841425361e-15 -5.315906268850837 20.410550618319864 0.12267593216686029 -8.842604594136262e-08 4.835275469291069e-07 -4.077258840213524 -5.3228921929338044 2.8172166511408765 -169.58696822245426 112.35276105994036 -24.106616569183064 175.8561436946181 -3.952731932054375e-06 5.116313105652898e-06 89.6088705092894 0.0 0.0 -3.1805546814635168e-15 -118.7315995784115 -14.285141410123284 168.45021909736937 1.757235125629184e-06 -1.4603590193379036e-06 -82.24981609996169 0.0 -6.3611093629270335e-15 0.0
-1.804960447771009e-05 93.56985473632812 -0.001049856306053698 -9.037483858055403 10.174237888911804 -119.3549310526017 -3.9439907677349213 11.93723701813977 0.016817233582242425 -2.400482476924907 15.869075373585112 0.6863321249828258 -7.951386703658792e-16 -1.5902773407317584e-15 3.975693351829396e-16 -12.80074755954296 2.5440652747992774 0.40541575498221505 3.1852813511415663 13.894927905836147 1.3808321712377567 1.590277340731758e-15 -3.9756933518293955e-16 -4.07508568562513e-15 -5.507549241721587 19.564095352049904 0.5536461354758991 -5.24459743636758e-07 -6.233617847361773e-07 -3.3054417380896277 -7.909208635892385 3.5716156008386926 -169.38609036868354 111.55090241515731 -23.919131463461074 176.05462338417524 -2.7263344510151972e-06 2.336008776385649e-06 87.6634252379962 6.3611093629270335e-15 -6.3611093629270335e-15 3.1805546814635168e-15 -117.70688237038964 -11.532798274069071 169.32078943875337 4.257975347067262e-06 -5.196016302190805e-07 -87.3994578839779 -1.5902773407317582e-15 9.939233379573485e-17 3.1805546814635164e-15
-2.438537194393575e-06 93.56977844238281 -0.0010403422638773918 -8.745891456300926 10.01149787059487 -118.77728613141149 -4.509239630365414 11.79937618781147 0.1555956610119466 -1.8357193815390758 17.108134474403965 0.7680092605412162 1.5902773407317588e-15 -1.5902773407317588e-15 -2.3854160110976384e-15 -12.737244972110917 2.9232202674197305 0.46743622662499473 3.605536855695254 11.38188918248417 1.0605027694439013 -7.951386703658792e-16 7.951386703658792e-16 -2.2860236773019026e-15 -5.934916647418057 18.23020037046534 0.6867382675581282 8.006280171520376e-07 -4.173957268606552e-07 -2.550467739140483 -8.045074486852103 4.473110692859191 -167.74023084842386 110.54568376940196 -19.984814252708766 175.49013029397148 -3.284547026777519e-06 -9.154572647962645e-07 85.52506447734129 1.7655625192200634e-31 6.3611093629270335e-15 -3.1805546814635168e-15 -115.5055307457204 -12.973096163871196 170.95456869453827 -1.5015757525781329e-06 -1.052530953925331e-06 -85.25136231208819 -1.3793457181406746e-33 -4.969616689786744e-17 -3.180554681463516e-15
